<svg width="80" height="80" viewBox="0 0 80 80" fill="none" xmlns="http://www.w3.org/2000/svg">
<g clip-path="url(#clip0_18_61)">
<path d="M77.9606 37.3284L43.5131 2.8821C41.5306 0.89835 38.3131 0.89835 36.3275 2.8821L29.175 10.0359L38.2488 19.1096C40.3581 18.3977 42.7756 18.8752 44.4563 20.5559C46.1456 22.2471 46.6194 24.6852 45.89 26.8015L54.635 35.5471C56.7506 34.8177 59.1925 35.289 60.8813 36.9815C63.2438 39.3421 63.2438 43.169 60.8813 45.5309C60.3198 46.0926 59.6532 46.5381 58.9196 46.8421C58.1859 47.1461 57.3995 47.3026 56.6053 47.3026C55.8112 47.3026 55.0248 47.1461 54.2911 46.8421C53.5574 46.5381 52.8908 46.0926 52.3294 45.5309C51.4859 44.6868 50.9109 43.6121 50.6768 42.4421C50.4427 41.272 50.5599 40.0588 51.0138 38.9552L42.8588 30.8002L42.8575 52.2634C43.4492 52.5547 43.9894 52.9406 44.4569 53.4059C46.8181 55.7665 46.8181 59.5921 44.4569 61.9577C42.095 64.3184 38.2669 64.3184 35.9075 61.9577C33.5463 59.5927 33.5463 55.7671 35.9075 53.4059C36.4732 52.8392 37.1461 52.3909 37.8869 52.0871V30.4252C37.1455 30.1222 36.4724 29.6736 35.9075 29.1059C34.1188 27.3184 33.6881 24.6934 34.6056 22.4959L25.66 13.5502L2.04001 37.169C1.08708 38.1222 0.551758 39.4149 0.551758 40.7627C0.551758 42.1106 1.08708 43.4033 2.04001 44.3565L36.4881 78.8027C38.4719 80.7865 41.6881 80.7865 43.675 78.8027L77.9613 44.5165C78.914 43.563 79.4491 42.2702 79.449 40.9223C79.4489 39.5744 78.9135 38.2817 77.9606 37.3284Z" fill="#F34F29"/>
</g>
<defs>
<clipPath id="clip0_18_61">
<rect width="80" height="80" fill="white"/>
</clipPath>
</defs>
</svg>
