<svg width="80" height="80" viewBox="0 0 80 80" fill="none" xmlns="http://www.w3.org/2000/svg">
<g clip-path="url(#clip0_18_88)">
<path d="M70.4819 30.7483L42.9213 14.7452C41.1831 13.7552 38.92 13.7552 37.1681 14.7452L9.31313 30.7483C7.51938 31.7802 6.25 33.7196 6.25 35.7939V67.7577C6.25 69.8321 7.5525 71.7721 9.34625 72.8096L16.7056 76.9896C20.2231 78.7221 21.4663 78.7221 23.0669 78.7221C28.275 78.7221 31.25 75.5727 31.25 70.0796V38.5233C31.25 38.0777 31.0181 37.4146 30.5806 37.4146H27.0662C26.6212 37.4146 25.625 38.0777 25.625 38.5227V70.0789C25.625 72.5139 23.4225 74.9371 19.3062 72.8789L11.7019 68.4958C11.4369 68.3521 11.25 68.0627 11.25 67.7577V35.7939C11.25 35.4927 11.5969 35.1902 11.8638 35.0358L39.6287 19.0602C39.8881 18.9133 40.2694 18.9133 40.5281 19.0602L67.9544 35.0321C68.2169 35.1902 68.1244 35.4833 68.1244 35.7939V67.7577C68.1244 68.0627 68.2387 68.3596 67.9794 68.5064L40.4256 84.4914C40.1894 84.6333 39.8962 84.6333 39.6375 84.4914L32.5706 80.2733C32.3575 80.1496 32.1044 80.1052 31.9 80.2196C29.9338 81.3339 29.5712 81.4821 27.7269 82.1214C27.2731 82.2796 26.6037 82.5539 27.9831 83.3271L37.2319 88.7983C38.1149 89.3083 39.1166 89.5769 40.1363 89.5771C41.1625 89.5771 42.1675 89.3108 43.0531 88.7983L70.4812 72.8096C72.275 71.7646 73.125 69.8321 73.125 67.7577V35.7939C73.125 33.7196 72.275 31.7852 70.4819 30.7483ZM48.6938 62.6927C41.365 62.6927 39.7506 60.6708 39.2125 57.0264C39.15 56.6339 38.8169 56.1646 38.4175 56.1646H34.8356C34.3925 56.1646 34.0363 56.7021 34.0363 57.1433C34.0363 61.8096 36.5731 67.4633 48.6944 67.4633C57.4688 67.4633 62.4994 64.0539 62.4994 58.0202C62.4994 52.0377 58.4575 50.4677 49.9481 49.3414C41.3469 48.2046 40.4731 47.6302 40.4731 45.6152C40.4731 43.9539 41.2131 41.7383 47.5819 41.7383C53.2725 41.7383 55.37 42.9596 56.2331 46.7952C56.3069 47.1558 56.6362 47.4146 57.0081 47.4146H60.6044C60.8256 47.4146 61.0369 47.3252 61.1919 47.1671C61.3419 46.9971 61.4212 46.7839 61.4012 46.5552C60.8444 39.9502 56.4562 36.8721 47.5812 36.8721C39.6869 36.8721 34.9775 40.2058 34.9775 45.7939C34.9775 51.8552 39.6631 53.5302 47.2412 54.2796C56.3069 55.1683 57.0119 56.4933 57.0119 58.2764C57.0119 61.3733 54.5256 62.6927 48.6938 62.6927Z" fill="#83CD29"/>
</g>
<defs>
<clipPath id="clip0_18_88">
<rect width="80" height="80" fill="white"/>
</clipPath>
</defs>
</svg>
