<svg width="80" height="80" viewBox="0 0 80 80" fill="none" xmlns="http://www.w3.org/2000/svg">
<g clip-path="url(#clip0_18_103)">
<path d="M55.4314 55.0687C49.8064 66.5687 39.9563 74.3062 26.9251 76.8499C24.9271 77.3394 22.8759 77.5788 20.8188 77.5624C13.3188 77.5624 6.44385 74.4374 3.10635 69.3187C-1.3749 62.4999 -2.8999 48.0437 11.8751 37.3499C12.1751 38.9812 12.7876 41.2187 13.1938 42.5437C10.2934 44.6985 7.91933 47.4828 6.2501 50.6874C3.5001 56.0874 3.80635 61.4812 7.0626 66.4687C9.3126 69.8312 12.8751 71.8749 17.4563 72.4999C23.1784 73.2242 28.9834 72.131 34.0501 69.3749C41.9938 65.1999 47.2876 60.2124 50.7501 53.3937C49.771 52.3819 49.1915 51.0497 49.1188 49.6437C49.0665 48.1348 49.6149 46.6669 50.6437 45.5619C51.6725 44.457 53.0976 43.8053 54.6064 43.7499H54.8188C56.2863 43.7426 57.7005 44.2996 58.7687 45.3058C59.8369 46.312 60.4774 47.6904 60.5577 49.1557C60.638 50.621 60.1519 52.0611 59.2 53.178C58.2482 54.2949 56.9033 55.0031 55.4438 55.1562L55.4314 55.0687ZM73.3501 42.4437C80.9813 51.0937 81.1876 61.2749 78.2376 67.1812C75.4876 72.5749 68.2376 77.9749 58.4876 77.9749C53.9361 77.8821 49.4587 76.8053 45.3626 74.8187C46.7939 73.7999 48.8251 72.1687 49.9439 71.1499C53.1025 72.5183 56.5018 73.2449 59.9439 73.2874C66.2564 73.2874 71.0376 70.3374 73.8876 64.9437C75.7188 61.3812 75.8251 57.2062 74.0939 52.9312C71.9695 47.5523 68.1894 42.9886 63.3001 39.8999C56.8855 35.5758 49.3235 33.2706 41.5876 33.2812H39.7563C39.3293 34.2676 38.6346 35.1147 37.751 35.7267C36.8673 36.3386 35.8299 36.6909 34.7563 36.7437H34.5626C33.0777 36.7254 31.6584 36.129 30.6062 35.0811C29.5539 34.0332 28.9517 32.6164 28.9273 31.1316C28.9028 29.6468 29.4582 28.211 30.4755 27.1291C31.4927 26.0472 32.8916 25.4045 34.3751 25.3374H34.5813C35.6151 25.3382 36.6287 25.6238 37.5108 26.163C38.3928 26.7021 39.1093 27.474 39.5813 28.3937H41.2126C54.2126 28.3937 65.6251 33.3812 73.3501 42.4437ZM21.6313 56.8187C21.5243 55.7808 21.7758 54.7376 22.3438 53.8624C16.6438 43.9874 13.5938 31.4687 18.2751 18.4374C21.6313 8.64365 30.0813 2.0249 39.2438 2.0249C49.0188 2.0249 59.2001 10.5812 60.4188 27.0687C58.8938 26.5624 56.6688 25.8187 55.3313 25.5437C55.0001 20.1499 50.4438 6.7124 39.6501 6.9124C35.7813 7.01865 30.0813 8.8499 27.1501 12.6124C23.5242 17.1038 21.4149 22.6286 21.1251 28.3937C20.438 36.2985 22.2927 44.2162 26.4188 50.9937C26.6466 50.9104 26.8895 50.8764 27.1313 50.8937H27.3313C28.8431 50.8663 30.3038 51.4406 31.3921 52.4902C32.4804 53.5398 33.1071 54.9788 33.1345 56.4905C33.1618 58.0023 32.5875 59.463 31.5379 60.5512C30.4883 61.6395 29.0493 62.2663 27.5376 62.2937H27.3313C25.8565 62.2884 24.4406 61.7142 23.3788 60.6908C22.3169 59.6673 21.6909 58.2735 21.6313 56.7999V56.8187Z" fill="#764ABC"/>
</g>
<defs>
<clipPath id="clip0_18_103">
<rect width="80" height="80" fill="white"/>
</clipPath>
</defs>
</svg>
