<svg width="80" height="80" viewBox="0 0 80 80" fill="none" xmlns="http://www.w3.org/2000/svg">
<path d="M11.8981 71.1725L5.64499 1.03809H74.355L68.095 71.1618L39.9581 78.9618L11.8981 71.1725Z" fill="#E44D26"/>
<path d="M40 73L62.7362 66.6962L68.0856 6.77246H40V73Z" fill="#F16529"/>
<path d="M40 32.7843H28.6175L27.8313 23.9755H40V15.3743H18.4306L18.6369 17.6818L20.7506 41.3861H40V32.7843ZM40 55.1236L39.9619 55.1343L30.3825 52.5468L29.7706 45.6874H21.135L22.34 59.193L39.9606 64.0843L40 64.0736V55.1236Z" fill="#EBEBEB"/>
<path d="M39.97 32.7843V41.3861H50.5619L49.5638 52.5418L39.97 55.1311V64.0805L57.6044 59.193L57.7338 57.7399L59.755 35.0943L59.9644 32.7843H57.6469H39.97ZM39.97 15.3743V23.9755H60.7475L60.92 22.043L61.3125 17.6818L61.5181 15.3743H39.97Z" fill="white"/>
</svg>
