<svg width="80" height="80" viewBox="0 0 80 80" fill="none" xmlns="http://www.w3.org/2000/svg">
<path fill-rule="evenodd" clip-rule="evenodd" d="M55.0237 26.7576C56.0269 29.6594 56.7494 32.6219 56.9869 35.6926C57.2819 39.5019 57.1469 43.2844 56.3437 47.0313C56.3219 47.1344 56.2756 47.2313 56.2412 47.3313C55.9894 47.3319 55.7325 47.3007 55.4862 47.3388C53.4056 47.6657 51.3269 48.0044 49.2481 48.3413C47.0994 48.6894 44.9475 49.0238 42.8025 49.3957C42.0425 49.5269 41.1019 49.3701 40.795 50.4213C40.7862 50.4501 40.6987 50.4551 40.6481 50.4713L40.7519 44.1894L40.6462 29.0319L41.6475 28.8601C43.285 28.5919 44.9225 28.3201 46.5612 28.0594C48.5169 27.7488 50.4744 27.4469 52.4312 27.1438C53.2944 27.0094 54.1587 26.8863 55.0237 26.7576Z" fill="#439934"/>
<path fill-rule="evenodd" clip-rule="evenodd" d="M38.5806 68.7838C37.5244 67.8756 36.4312 67.0075 35.4187 66.0525C29.9706 60.9138 25.9856 54.8656 24.0231 47.5738C23.4825 45.5669 23.1219 43.5275 23.0062 41.4538C22.925 40.0025 22.8075 38.5381 22.91 37.0944C23.1831 33.2544 23.7381 29.4513 24.8644 25.7525L24.9262 25.6663C25.0356 25.8119 25.1931 25.9406 25.2487 26.105C26.3481 29.3425 27.4394 32.5825 28.525 35.8244C31.9362 46.0119 35.3431 56.2019 38.76 66.3869C38.8269 66.5856 39 66.7488 39.1244 66.9281L38.5806 68.7838Z" fill="#45A538"/>
<path fill-rule="evenodd" clip-rule="evenodd" d="M55.0238 26.7576C54.1588 26.8863 53.2938 27.0095 52.4306 27.1426C50.4738 27.4457 48.5163 27.7476 46.5606 28.0582C44.9219 28.3188 43.2844 28.5907 41.6469 28.8588L40.6456 29.0307L40.6381 28.3776C40.605 27.8407 40.5481 27.3045 40.5419 26.7676C40.4988 23.3438 40.4719 19.9201 40.4294 16.4963C40.4031 14.3532 40.3638 12.2107 40.32 10.0682C40.2931 8.73696 40.2644 7.40509 40.2044 6.07571C40.1719 5.36134 40.0569 4.65071 40.01 3.93634C39.9838 3.52571 40.02 3.11196 40.0281 2.69946C40.5388 3.68884 41.0381 4.68571 41.5631 5.66759C42.3925 7.22009 43.7138 8.36384 44.9031 9.61196C49.605 14.5445 52.9431 20.2795 55.0238 26.7576Z" fill="#46A037"/>
<path fill-rule="evenodd" clip-rule="evenodd" d="M40.6475 50.4706C40.6981 50.4543 40.7863 50.4493 40.7944 50.4206C41.1013 49.3693 42.0419 49.5262 42.8019 49.395C44.9469 49.0237 47.0988 48.6887 49.2475 48.3406C51.3263 48.0037 53.405 47.665 55.4856 47.3381C55.7319 47.2993 55.9888 47.3312 56.2406 47.3306C55.8519 48.7181 55.5456 50.1356 55.0525 51.485C54.4925 53.0156 53.815 54.5093 53.0956 55.9737C52.0187 58.1579 50.6858 60.2062 49.125 62.0756C47.9256 63.5181 46.5888 64.8512 45.2488 66.1681C44.5081 66.8962 43.635 67.4893 42.8225 68.1437L42.6119 68L41.8531 67.3512L41.0681 65.6306C40.5319 63.6234 40.2394 61.559 40.1969 59.4818L40.2113 59.1312L40.3181 57.615C40.3538 57.0975 40.4013 56.5806 40.4231 56.0618C40.5038 54.1981 40.5738 52.3343 40.6475 50.4706Z" fill="#409433"/>
<path fill-rule="evenodd" clip-rule="evenodd" d="M40.6475 50.4705C40.5738 52.3343 40.5038 54.198 40.4244 56.0624C40.4025 56.5811 40.355 57.098 40.3194 57.6155L39.8413 57.7961C38.7794 54.6699 37.7169 51.5768 36.6775 48.4755C34.9588 43.3449 33.2606 38.2061 31.5444 33.0743C30.1582 28.9321 28.7624 24.7931 27.3569 20.6574C27.2913 20.4636 27.1025 20.3124 26.9713 20.1411L30.0313 14.5149C30.1363 14.6974 30.275 14.868 30.3413 15.0643C31.7585 19.2531 33.1685 23.4443 34.5713 27.638C36.3938 33.0943 38.205 38.5549 40.0263 44.0118C40.0988 44.2299 40.2188 44.4311 40.3331 44.6755L40.7519 44.188L40.6475 50.4705Z" fill="#4FAA41"/>
<path fill-rule="evenodd" clip-rule="evenodd" d="M26.9719 20.1418C27.1031 20.3131 27.2913 20.4643 27.3575 20.6581C28.763 24.7938 30.1588 28.9328 31.545 33.075C33.2613 38.2068 34.9594 43.3456 36.6781 48.4762C37.7169 51.5768 38.7794 54.6706 39.8419 57.7968L40.32 57.6162L40.2131 59.1325L40.1163 59.4818C39.95 61.1418 39.81 62.8056 39.6075 64.4618C39.5056 65.2918 39.2894 66.1068 39.125 66.9287C39.0013 66.7493 38.8275 66.5862 38.7606 66.3875C35.3438 56.2018 31.9369 46.0125 28.5256 35.825C27.4404 32.5829 26.3483 29.3431 25.2494 26.1056C25.1938 25.9412 25.0369 25.8125 24.9269 25.6668L26.9719 20.1418Z" fill="#4AA73C"/>
<path fill-rule="evenodd" clip-rule="evenodd" d="M40.7513 44.1889L40.3325 44.6764C40.2181 44.432 40.0981 44.2301 40.0256 44.0126C38.205 38.5557 36.3931 33.0951 34.5706 27.6388C33.1679 23.4452 31.7578 19.2539 30.3406 15.0651C30.275 14.8688 30.1363 14.6976 30.0306 14.5157L33.815 9.5376C33.9344 9.69697 34.1044 9.83885 34.1663 10.0182C35.2169 13.0938 36.2581 16.1732 37.2931 19.2545C38.26 22.132 39.2125 25.0138 40.1906 27.8876C40.2563 28.0801 40.4844 28.2163 40.6369 28.3788L40.6444 29.032C40.6806 34.0832 40.7163 39.1364 40.7513 44.1889Z" fill="#57AE47"/>
<path fill-rule="evenodd" clip-rule="evenodd" d="M40.6382 28.3776C40.4857 28.2151 40.2575 28.0788 40.1919 27.8863C39.2138 25.0126 38.2613 22.1307 37.2944 19.2532C36.2594 16.1719 35.2182 13.0932 34.1675 10.0169C34.1057 9.83757 33.9357 9.69569 33.8163 9.53632C35.0469 8.33132 36.2394 7.08319 37.5194 5.93382C38.6575 4.91257 39.5725 3.81757 39.6144 2.20382C39.6163 2.13694 39.6513 2.07007 39.705 1.88257L40.0294 2.69882C40.0213 3.11194 39.9844 3.52507 40.0113 3.93569C40.0582 4.65007 40.1732 5.36069 40.2057 6.07507C40.2657 7.40444 40.2944 8.73632 40.3213 10.0676C40.3644 12.2101 40.4038 14.3526 40.4307 16.4957C40.4725 19.9194 40.5 23.3432 40.5432 26.7669C40.5482 27.3051 40.6044 27.8407 40.6382 28.3776Z" fill="#60B24F"/>
<path fill-rule="evenodd" clip-rule="evenodd" d="M39.1238 66.9282C39.2881 66.1063 39.5044 65.2907 39.6063 64.4613C39.8094 62.8057 39.9488 61.1413 40.115 59.4813L40.1563 59.4751L40.1975 59.482C40.24 61.5591 40.5326 63.6235 41.0688 65.6307C40.9588 65.7757 40.8031 65.9051 40.745 66.0688C40.2906 67.3501 39.8625 68.6413 39.4056 69.9226C39.3431 70.0976 39.1694 70.2338 39.0469 70.3876L38.58 68.7838L39.1238 66.9282Z" fill="#A9AA88"/>
<path fill-rule="evenodd" clip-rule="evenodd" d="M39.0475 70.3882C39.17 70.2345 39.3444 70.0982 39.4062 69.9232C39.8631 68.642 40.2919 67.3513 40.7456 66.0695C40.8037 65.9057 40.9587 65.7763 41.0694 65.6313L41.8537 67.3526C41.6987 67.5726 41.485 67.7707 41.3987 68.0157L39.8962 72.4276C39.8344 72.6045 39.6231 72.7295 39.4819 72.8788L39.0475 70.3882Z" fill="#B6B598"/>
<path fill-rule="evenodd" clip-rule="evenodd" d="M39.4819 72.8781C39.6237 72.7293 39.8344 72.6037 39.8962 72.4268L41.3987 68.0149C41.4844 67.7706 41.6987 67.5718 41.8537 67.3518L42.6131 67.9999C42.2462 68.3624 42.0425 68.7812 42.165 69.3106L41.9344 70.0656C41.8294 70.1949 41.6775 70.3074 41.6256 70.4556C41.1012 71.9574 40.6006 73.4674 40.0725 74.9693C40.0056 75.1599 39.82 75.3093 39.6887 75.4768C39.6206 74.6099 39.5512 73.7449 39.4819 72.8781Z" fill="#C2C1A7"/>
<path fill-rule="evenodd" clip-rule="evenodd" d="M39.6894 75.4769C39.82 75.3088 40.0056 75.1594 40.0731 74.9694C40.6012 73.4682 41.1019 71.9582 41.6262 70.4557C41.6781 70.3082 41.8294 70.195 41.935 70.0657L41.6169 73.5313C41.5319 73.6294 41.4087 73.715 41.3681 73.8294C41.0087 74.8382 40.67 75.8544 40.3094 76.8632C40.235 77.0713 40.0925 77.255 39.9812 77.4494C39.8825 77.32 39.7056 77.195 39.6975 77.06C39.6656 76.5344 39.6875 76.005 39.6894 75.4769Z" fill="#CECDB7"/>
<path fill-rule="evenodd" clip-rule="evenodd" d="M39.9806 77.4494C40.0918 77.2544 40.2343 77.0706 40.3087 76.8631C40.67 75.855 41.0081 74.8387 41.3675 73.8294C41.4081 73.715 41.5318 73.63 41.6162 73.5312L41.6237 75.8062L40.8625 77.7587L39.9806 77.4494Z" fill="#DBDAC7"/>
<path fill-rule="evenodd" clip-rule="evenodd" d="M40.8625 77.7594L41.6237 75.8069L41.7806 78.1169L40.8625 77.7594Z" fill="#EBE9DC"/>
<path fill-rule="evenodd" clip-rule="evenodd" d="M42.165 69.3114C42.0425 68.782 42.2456 68.3626 42.6131 68.0007L42.8237 68.1445L42.165 69.3114Z" fill="#CECDB7"/>
<path fill-rule="evenodd" clip-rule="evenodd" d="M40.1975 59.4826L40.1562 59.4757L40.115 59.4819L40.2119 59.1326L40.1975 59.4826Z" fill="#4FAA41"/>
</svg>
