<svg width="80" height="80" viewBox="0 0 80 80" fill="none" xmlns="http://www.w3.org/2000/svg">
<path d="M58.6306 57.5699C59.1212 53.4868 58.9744 52.8874 62.0156 53.5493L62.7875 53.6168C65.1262 53.7231 68.1856 53.2405 69.9831 52.4055C73.8525 50.6099 76.1463 47.6131 72.3319 48.3999C63.6294 50.1956 63.0312 47.2487 63.0312 47.2487C72.2206 33.6143 76.0619 16.3062 72.7456 12.0693C63.7019 0.513674 48.0475 5.97805 47.7856 6.1193L47.7019 6.13492C45.9825 5.77805 44.0581 5.56492 41.8962 5.52992C37.9581 5.46492 34.97 6.56242 32.7031 8.28117C32.7031 8.28117 4.77625 -3.22445 6.07562 22.7505C6.35187 28.2762 13.9956 64.5618 23.1131 53.6018C26.4456 49.5943 29.6656 46.2056 29.6656 46.2056C31.2644 47.2674 33.1794 47.8099 35.1869 47.6149L35.3425 47.4824C35.2937 47.9799 35.315 48.4668 35.4044 49.0431C33.0562 51.6674 33.7462 52.128 29.0506 53.0943C24.2994 54.073 27.0906 55.8162 28.9125 56.2718C31.1219 56.8243 36.2325 57.6068 39.6862 52.773L39.5487 53.3243C40.47 54.0618 40.4081 58.6224 40.5381 61.8806C40.6687 65.1393 40.8869 68.1799 41.5512 69.9731C42.2156 71.7656 42.9994 76.383 49.1706 75.0605C54.3281 73.958 58.2712 72.3674 58.6306 57.5699Z" fill="black"/>
<path d="M47.1613 78.2849C44.4319 78.2849 42.6544 77.2293 41.575 76.2099C39.9456 74.6724 39.2994 72.6918 38.9131 71.5086L38.7463 71.0149C37.9688 68.9161 37.705 65.8943 37.5488 62.003C37.525 61.4186 37.5088 60.8168 37.4906 60.1786C37.4775 59.7118 37.4613 59.1261 37.4375 58.5136C36.4542 58.9825 35.4104 59.3123 34.3363 59.4936C32.4119 59.8224 30.3431 59.7161 28.1863 59.1768C26.6644 58.7961 25.0831 58.0074 24.1819 56.7893C21.555 59.0899 19.0494 58.778 17.6844 58.3224C15.2763 57.5193 13.1213 55.2624 11.0956 51.4243C9.65251 48.6899 8.25688 45.1274 6.94688 40.8349C4.66563 33.3599 3.21626 25.4868 3.08751 22.9018C2.68251 14.8111 4.86063 9.02488 9.56001 5.70551C16.9731 0.469258 28.205 3.54863 32.3 4.94676C35.0513 3.28863 38.2881 2.48176 41.9456 2.53988C43.91 2.57176 45.7806 2.74426 47.5181 3.05426C49.3306 2.48426 52.9106 1.66613 57.0088 1.71738C64.5594 1.80738 70.8163 4.74988 75.1019 10.2268C78.1606 14.1343 76.6481 22.3399 75.475 26.8836C73.8238 33.2749 70.9306 40.0724 67.3769 45.9899C68.3419 45.9968 69.74 45.8811 71.7275 45.4705C75.6488 44.6611 76.7956 46.7636 77.1069 47.7049C78.3538 51.4811 72.9338 54.3349 71.2431 55.1199C69.0769 56.1255 65.545 56.738 62.6525 56.6055L62.5263 56.5974L61.7663 56.5305L61.6913 57.1643L61.6188 57.7836C61.4244 65.283 60.3531 70.0324 58.1488 73.1705C55.8381 76.4605 52.6269 77.3824 49.7981 77.9886C48.8331 78.1949 47.9563 78.2849 47.1613 78.2849ZM41.4175 50.9905C43.1794 52.4005 43.3338 55.0536 43.4719 60.0118C43.4894 60.6305 43.5056 61.2161 43.5275 61.763C43.5938 63.4193 43.7494 67.2974 44.3569 68.9361C44.4425 69.168 44.5194 69.403 44.6006 69.6524C45.2775 71.7249 45.6169 72.7643 48.5438 72.1386C51.0006 71.6118 52.2638 71.1393 53.2525 69.7318C54.6894 67.6855 55.4931 63.5693 55.6406 57.4974L58.63 57.5699L55.6613 57.2136L55.7488 56.4724C56.0331 54.0286 56.2381 52.2636 57.8713 51.0961C59.1819 50.1599 60.675 50.2505 61.8644 50.4649C60.5575 49.4774 60.1963 48.3193 60.1 47.8443L59.8506 46.6161L60.5513 45.5768C64.5869 39.5893 67.9144 32.2305 69.6819 25.3868C71.4981 18.3549 70.9444 14.6205 70.3906 13.9143C63.06 4.54738 50.3481 8.41488 49.0206 8.85363L48.7963 8.97488L47.6713 9.18426L47.095 9.06488C45.5063 8.73488 43.7413 8.55238 41.8494 8.52176C38.8769 8.47176 36.4788 9.17426 34.5125 10.6661L33.1481 11.7005L31.565 11.0486C28.1825 9.66551 18.2475 6.88488 13.005 10.598C10.095 12.6593 8.76938 16.698 9.06438 22.6024C9.16188 24.5518 10.4863 31.9311 12.6713 39.088C15.6906 48.9786 18.4344 52.2643 19.58 52.6461C19.78 52.7136 20.2988 52.3105 20.815 51.6905C22.9675 49.1101 25.1964 46.5944 27.4988 44.1468L29.23 42.3249L31.3231 43.7155C32.1669 44.2761 33.0975 44.5943 34.0531 44.6543L39.045 40.3968L38.3219 47.7768C38.3056 47.9424 38.2975 48.168 38.3625 48.5868L38.58 49.9855L37.6363 51.0405L37.5275 51.163L40.27 52.4286L41.4175 50.9905Z" fill="black"/>
<path d="M72.3319 48.4C63.6288 50.1956 63.0306 47.2488 63.0306 47.2488C72.22 33.6138 76.0612 16.305 72.7462 12.0694C63.7025 0.514396 48.0469 5.97877 47.7856 6.12065L47.7012 6.13565C45.9819 5.77877 44.0575 5.56627 41.8944 5.53127C37.9562 5.4669 34.9694 6.56377 32.7025 8.28252C32.7025 8.28252 4.775 -3.22248 6.07375 22.7519C6.35 28.2781 13.9937 64.5638 23.1112 53.6038C26.4437 49.5963 29.6631 46.2075 29.6631 46.2075C31.2625 47.2694 33.1769 47.8119 35.1837 47.6169L35.34 47.4844C35.2912 47.9819 35.3138 48.4688 35.4025 49.045C33.0538 51.6694 33.7438 52.13 29.0481 53.0963C24.2969 54.075 27.0881 55.8181 28.9106 56.2738C31.1194 56.8263 36.2306 57.6088 39.6837 52.775L39.5456 53.3263C40.4662 54.0638 41.1125 58.1213 41.0044 61.7994C40.8956 65.4775 40.8231 68.0031 41.5487 69.9756C42.2737 71.9481 42.9962 76.3856 49.1687 75.0631C54.3262 73.9581 56.9987 71.0938 57.3712 66.3163C57.635 62.9194 58.2319 63.4219 58.27 60.385L58.7494 58.9475C59.3019 54.3431 58.8369 52.8581 62.015 53.5488L62.7869 53.6163C65.1256 53.7225 68.1862 53.24 69.9831 52.405C73.8519 50.6106 76.1463 47.6131 72.3319 48.4Z" fill="#336791"/>
<path d="M47.4731 75.5997C42.3281 75.5997 40.6981 71.5253 40.0313 69.8591C39.055 67.4172 38.8444 57.941 39.0619 50.1697C39.0651 50.0387 39.0942 49.9095 39.1476 49.7898C39.2009 49.67 39.2775 49.562 39.3727 49.472C39.468 49.3819 39.5802 49.3116 39.7027 49.2651C39.8253 49.2186 39.9558 49.1968 40.0869 49.201C40.2178 49.2045 40.3467 49.2339 40.4662 49.2873C40.5858 49.3407 40.6936 49.4172 40.7836 49.5123C40.8736 49.6075 40.9439 49.7194 40.9906 49.8417C41.0373 49.9641 41.0594 50.0944 41.0556 50.2253C40.805 59.1885 41.1606 67.311 41.8831 69.1185C43.0106 71.9366 44.7206 74.4016 49.555 73.366C54.1444 72.3816 55.8631 70.6416 56.6288 66.2035C57.2163 62.7978 58.3781 53.1091 58.5213 51.1972C58.5308 51.0666 58.5661 50.9391 58.625 50.8221C58.6839 50.7051 58.7654 50.6009 58.8647 50.5154C58.964 50.4299 59.0791 50.3649 59.2036 50.324C59.3281 50.2831 59.4594 50.2672 59.59 50.2772C59.8536 50.2972 60.0986 50.4209 60.271 50.6213C60.4435 50.8217 60.5295 51.0823 60.51 51.346C60.3606 53.3366 59.2044 63.0066 58.5944 66.5428C57.6906 71.7847 55.3538 74.1622 49.9731 75.316C49.0588 75.5116 48.2281 75.5991 47.4731 75.5997ZM19.5756 55.6991C19.1259 55.6975 18.6794 55.6237 18.2531 55.4803C14.9113 54.3653 11.7281 48.9228 8.79188 39.3022C6.55688 31.9791 5.14063 24.3353 5.01626 21.851C4.64813 14.486 6.54438 9.27534 10.6538 6.36471C18.7831 0.604712 32.4588 6.08971 33.0369 6.32596C33.2818 6.426 33.4769 6.61923 33.5794 6.86314C33.6818 7.10706 33.6832 7.38167 33.5831 7.62659C33.4831 7.8715 33.2899 8.06664 33.0459 8.16908C32.802 8.27152 32.5274 8.27287 32.2825 8.17284C32.1506 8.11909 19.0369 2.86534 11.8025 7.99471C8.28876 10.486 6.67563 15.1147 7.00751 21.7516C7.11188 23.8447 8.43501 31.3047 10.6988 38.7197C13.32 47.3085 16.3031 52.7278 18.8838 53.5885C19.2888 53.7235 20.5213 54.1341 22.2831 52.0153C24.3378 49.5477 26.4695 47.1453 28.675 44.8116C28.8596 44.6275 29.1088 44.523 29.3695 44.5204C29.6301 44.5178 29.8814 44.6173 30.0696 44.7976C30.2578 44.978 30.3679 45.2248 30.3764 45.4854C30.3849 45.7459 30.2911 45.9994 30.115 46.1916C30.085 46.2228 27.0856 49.3585 23.8169 53.291C22.2688 55.1528 20.785 55.6991 19.5756 55.6991ZM62.9688 47.296C62.788 47.2957 62.6106 47.2463 62.4557 47.1531C62.3008 47.0599 62.1742 46.9263 62.0893 46.7667C62.0044 46.607 61.9646 46.4273 61.9739 46.2468C61.9833 46.0662 62.0416 45.8916 62.1425 45.7416C71.4319 31.9572 74.6925 15.3016 71.9 11.7328C68.385 7.24159 63.4219 4.89596 57.1475 4.76034C52.5019 4.66034 48.8094 5.84659 48.2056 6.05346L48.0538 6.11534C47.4469 6.30596 46.9813 5.97346 46.8056 5.58471C46.7055 5.36198 46.6903 5.11031 46.763 4.87716C46.8356 4.64401 46.9911 4.44551 47.2 4.31909C47.2288 4.30221 47.32 4.26346 47.4681 4.20909C48.4938 3.83346 52.2425 2.70846 56.8856 2.76159C63.8281 2.83534 69.5631 5.51221 73.4694 10.5041C75.3175 12.866 75.3219 18.3072 73.4812 25.4335C71.605 32.6991 68.0744 40.5072 63.7956 46.8566C63.6044 47.1422 63.2894 47.296 62.9688 47.296ZM63.4438 53.6772C61.8575 53.6772 60.4356 53.4535 59.5844 52.9435C58.7094 52.4191 58.5425 51.7066 58.5206 51.3285C58.2819 47.1347 60.5956 46.4047 61.7756 46.0716C61.6113 45.8228 61.3775 45.5303 61.1356 45.2285C60.4475 44.3685 59.505 43.191 58.7788 41.4297C58.665 41.1547 58.3088 40.5153 57.8963 39.7747C55.6594 35.7635 51.005 27.4166 53.995 23.1422C55.3788 21.1641 58.1344 20.3853 62.1944 20.8197C61 17.181 55.3125 5.79846 41.8169 5.57721C37.7581 5.50971 34.4294 6.75784 31.9281 9.28346C26.3281 14.9391 26.5306 25.1722 26.5338 25.2747C26.5372 25.4056 26.5148 25.5359 26.4679 25.6582C26.421 25.7805 26.3505 25.8923 26.2603 25.9873C26.1702 26.0823 26.0622 26.1586 25.9426 26.2119C25.823 26.2652 25.694 26.2944 25.5631 26.2978C25.4322 26.3013 25.3019 26.2789 25.1796 26.232C25.0574 26.1851 24.9456 26.1145 24.8505 26.0244C24.7555 25.9343 24.6792 25.8263 24.6259 25.7067C24.5727 25.5871 24.5435 25.4581 24.54 25.3272C24.5275 24.8728 24.3188 14.1341 30.5113 7.87971C33.4094 4.95284 37.2244 3.50784 41.85 3.58346C50.4838 3.72534 56.0413 8.11471 59.1825 11.7716C62.6069 15.7572 64.2856 20.1535 64.4238 21.621C64.5269 22.7122 63.7438 22.9303 63.5856 22.9628L63.2256 22.971C59.2413 22.3328 56.685 22.776 55.6281 24.286C53.3538 27.5366 57.7569 35.4322 59.6369 38.8041C60.1169 39.6641 60.4631 40.286 60.6219 40.6697C61.2394 42.1672 62.045 43.1735 62.6919 43.9822C63.2613 44.6935 63.7544 45.3103 63.9306 46.0341C64.0125 46.1778 65.1744 47.8966 72.0687 46.4735C73.7969 46.1172 74.8331 46.4216 75.15 47.3797C75.7731 49.2641 72.2769 51.4622 70.3412 52.361C68.6069 53.1672 65.8388 53.6772 63.4438 53.6772ZM60.5088 51.1641C60.7275 51.3847 61.8219 51.7653 64.0881 51.6678C66.1031 51.5816 68.2281 51.1435 69.5031 50.5516C71.1338 49.7941 72.2225 48.9472 72.7863 48.3691L72.4738 48.4266C68.0656 49.3366 64.9475 49.2153 63.2062 48.066C63.0893 47.9886 62.9766 47.905 62.8687 47.8153C62.68 47.8897 62.5056 47.9385 62.3812 47.9735C61.3937 48.2503 60.3725 48.5372 60.5088 51.1641ZM32.0325 56.736C30.9375 56.736 29.785 56.5866 28.6081 56.2922C27.3888 55.9872 25.3331 55.0691 25.3644 53.561C25.4 51.8691 27.8606 51.3616 28.7869 51.171C32.1331 50.4816 32.3513 50.2053 33.3969 48.8772C33.7019 48.4903 34.0813 48.0085 34.5988 47.431C35.3669 46.571 36.2063 46.1353 37.0938 46.1353C37.7119 46.1353 38.2188 46.3447 38.5538 46.4841C39.6213 46.9266 40.5119 47.9966 40.8781 49.276C41.2088 50.4303 41.0506 51.5416 40.4344 52.4047C38.4113 55.2378 35.5056 56.736 32.0325 56.736ZM27.5188 53.6466C27.8194 53.8791 28.4219 54.1897 29.0925 54.3572C30.1119 54.6122 31.1006 54.7416 32.0331 54.7416C34.8744 54.7416 37.1556 53.5653 38.8125 51.2453C39.1581 50.7616 39.0544 50.1472 38.9619 49.8241C38.7681 49.1472 38.2869 48.5316 37.7913 48.326C37.5225 48.2147 37.2994 48.1297 37.0944 48.1297C36.9844 48.1297 36.6494 48.1297 36.0856 48.7603C35.6966 49.1979 35.3226 49.6485 34.9644 50.1116C33.6619 51.7653 33.065 52.3266 29.19 53.1247C28.2444 53.3185 27.7594 53.516 27.5188 53.6466ZM35.1869 49.0466C34.9488 49.0462 34.7187 48.9607 34.5382 48.8055C34.3577 48.6503 34.2386 48.4357 34.2025 48.2003C34.1777 48.0348 34.161 47.8681 34.1525 47.701C31.6125 47.6535 29.1619 46.5635 27.3013 44.6222C24.9488 42.1678 23.8781 38.7672 24.3644 35.2928C24.8925 31.5197 24.695 28.1891 24.5888 26.3997C24.5594 25.9022 24.5381 25.5428 24.5394 25.2941C24.5413 24.9785 24.5475 24.1416 27.345 22.7235C28.34 22.2191 30.335 21.3391 32.5144 21.1135C36.125 20.7403 38.505 22.3485 39.2175 25.6422C41.1406 34.5347 39.37 38.4678 38.0769 41.3403C37.8363 41.8753 37.6088 42.3803 37.4269 42.8697L37.2663 43.301C36.5831 45.1328 35.9925 46.7153 36.1738 47.8972C36.1937 48.0266 36.1879 48.1587 36.1567 48.2859C36.1255 48.4131 36.0696 48.5329 35.9921 48.6385C35.9146 48.7441 35.8171 48.8334 35.7051 48.9012C35.5931 48.9691 35.4688 49.0143 35.3394 49.0341L35.1869 49.0466ZM26.54 25.5703L26.5788 26.2822C26.6888 28.141 26.8938 31.5997 26.3388 35.5697C25.9381 38.4353 26.8131 41.2322 28.7406 43.2422C30.2638 44.831 32.2681 45.7078 34.3281 45.7078H34.3706C34.6013 44.736 34.9844 43.7097 35.3969 42.6041L35.5563 42.1753C35.7619 41.6228 36.0025 41.0878 36.2575 40.5216C37.5019 37.7566 39.0513 34.3147 37.2669 26.0641C36.9138 24.4297 36.0569 23.4841 34.6488 23.1722C31.7563 22.5335 27.4456 24.7091 26.54 25.5703ZM32.5588 25.1472C32.5088 25.4997 33.2044 26.441 34.1119 26.5666C35.0175 26.6935 35.7925 25.9572 35.8419 25.6047C35.8913 25.2522 35.1963 24.8635 34.2888 24.7372C33.3819 24.611 32.6069 24.7947 32.5588 25.1472ZM34.32 26.9135L34.0656 26.896C33.5031 26.8178 32.9344 26.4635 32.545 25.9472C32.4081 25.766 32.185 25.4147 32.2294 25.101C32.2925 24.641 32.8538 24.3653 33.7294 24.3653C33.925 24.3653 34.1288 24.3797 34.3338 24.4085C34.8125 24.4747 35.2569 24.6128 35.585 24.796C36.1538 25.1135 36.1956 25.4678 36.17 25.651C36.1 26.1591 35.2919 26.9135 34.32 26.9135ZM32.8894 25.206C32.9175 25.4235 33.4563 26.141 34.1575 26.2378L34.3206 26.2491C34.9681 26.2491 35.4519 25.7397 35.5088 25.5728C35.4488 25.4591 35.0325 25.1766 34.2431 25.0666C34.0732 25.0422 33.9017 25.0299 33.73 25.0297C33.2225 25.0297 32.9531 25.1441 32.8894 25.206ZM60.1425 24.4278C60.1919 24.7803 59.4969 25.7216 58.59 25.8478C57.6838 25.9741 56.9081 25.2385 56.8581 24.886C56.8106 24.5335 57.5056 24.1441 58.4119 24.0185C59.3181 23.8916 60.0925 24.076 60.1425 24.4278ZM58.3806 26.0278C57.5081 26.0278 56.755 25.3491 56.6931 24.9085C56.6213 24.3797 57.4919 23.9778 58.3881 23.8535C58.5856 23.826 58.7813 23.8122 58.9694 23.8122C59.7431 23.8122 60.2556 24.0391 60.3069 24.4053C60.34 24.6422 60.1581 25.0078 59.845 25.3378C59.6381 25.5547 59.2038 25.9303 58.6119 26.0122L58.3806 26.0278ZM58.97 24.1447C58.7975 24.1447 58.6175 24.1578 58.435 24.1828C57.5344 24.3085 56.9969 24.6697 57.0231 24.8635C57.0531 25.0766 57.6281 25.696 58.3813 25.696L58.5669 25.6828C59.0588 25.6147 59.4281 25.2935 59.6044 25.1085C59.8812 24.8178 59.9912 24.5441 59.9781 24.451C59.9606 24.3272 59.6281 24.1447 58.97 24.1447ZM61.4481 44.6716C61.2675 44.6717 61.0901 44.6227 60.9352 44.5297C60.7802 44.4368 60.6535 44.3035 60.5685 44.1441C60.4835 43.9847 60.4434 43.8051 60.4526 43.6247C60.4618 43.4442 60.5199 43.2697 60.6206 43.1197C62.7444 39.9478 62.3556 36.7135 61.98 33.5853C61.8194 32.2528 61.6544 30.8747 61.6969 29.5522C61.7406 28.1916 61.9138 27.0691 62.0806 25.9835C62.2788 24.6972 62.4663 23.4822 62.3888 22.0397C62.3817 21.909 62.4005 21.7781 62.444 21.6546C62.4875 21.5311 62.5549 21.4174 62.6424 21.32C62.7298 21.2225 62.8356 21.1432 62.9537 21.0867C63.0718 21.0301 63.1999 20.9974 63.3306 20.9903C63.4614 20.9833 63.5922 21.002 63.7157 21.0456C63.8392 21.0891 63.9529 21.1565 64.0504 21.2439C64.1478 21.3314 64.2271 21.4372 64.2836 21.5553C64.3402 21.6734 64.3729 21.8015 64.38 21.9322C64.4688 23.581 64.2569 24.956 64.0519 26.2866C63.8938 27.3135 63.73 28.3753 63.6906 29.616C63.6525 30.7872 63.8019 32.031 63.96 33.3472C64.36 36.6735 64.8131 40.4435 62.2781 44.2291C62.1868 44.3654 62.0633 44.4771 61.9186 44.5543C61.7738 44.6315 61.6122 44.6718 61.4481 44.6716Z" fill="white"/>
</svg>
